<svg width="12" height="17" viewBox="0 0 12 17" fill="none" xmlns="http://www.w3.org/2000/svg">
<path d="M9.35938 6.67188H9.32812C9.28646 6.67188 9.20312 6.63021 9.07812 6.54688L8.90625 6.4375L8.70312 6.35938C8.66146 6.34896 8.61979 6.34375 8.57812 6.34375C8.20312 6.34375 7.69271 6.53646 7.04688 6.92188L6.64062 7.17188L6.23438 7.40625C5.95312 7.58333 5.73958 7.69271 5.59375 7.73438C5.44792 7.73438 5.27604 7.64062 5.07812 7.45312L4.85938 7.21875L4.60938 7.03125C5.34896 8.20833 6.40104 9.21354 7.76562 10.0469C8.17188 10.2969 8.57812 10.4688 8.98438 10.5625C9.20312 10.6146 9.41146 10.6406 9.60938 10.6406C9.86979 10.6406 10.1146 10.5938 10.3438 10.5V11.2812L10.3281 12.125V12.8125C10.3281 13.25 10.3333 13.6198 10.3438 13.9219C10.3958 15.3177 10.6042 16.2812 10.9688 16.8125C10.3958 16.6667 9.83333 16.3281 9.28125 15.7969C9.11458 15.6302 8.89062 15.3906 8.60938 15.0781L7.9375 14.3594C7.53125 13.9531 6.89062 13.3698 6.01562 12.6094L5.03125 11.75L4.07812 10.8438C3.55729 10.3333 2.90625 9.75521 2.125 9.10938L1.09375 8.29688L0.078125 7.46875C1.50521 6.75 3.25521 5.72917 5.32812 4.40625C5.82812 4.19792 6.35938 3.92708 6.92188 3.59375L7.65625 3.125L8.375 2.64062C9.64583 1.78646 10.6719 1.20312 11.4531 0.890625C10.9323 1.52604 10.4792 2.32812 10.0938 3.29688C9.65625 4.43229 9.41146 5.55729 9.35938 6.67188Z" fill="white"/>
</svg>
