<svg width="34" height="31" viewBox="0 0 34 31" fill="none" xmlns="http://www.w3.org/2000/svg">
<path d="M33.9302 1.2861C34.3887 2.35596 32.4132 9.38653 32.7915 14.4302C33.0208 17.487 33.4662 17.3341 33.6245 21.7907C33.7828 26.2473 33.9302 28.4149 33.4717 30.7075C32.9367 28.0328 28.428 27.8036 25.2184 27.88C26.4411 27.345 28.0648 25.6622 28.428 24.5939C28.3516 24.3647 27.5874 25.5874 27.1289 25.5874C27.5269 24.1698 27.511 21.9193 27.511 21.9193C27.511 21.9193 27.3887 17.8206 27.5415 14.8403C27.5765 14.1579 28.7337 12.1376 28.7337 12.1376C28.7337 12.1376 27.2639 13.0588 26.9582 13.6736C25.416 15.6078 20.846 21.9401 17.0416 22.1903C13.0677 15.8822 5.42582 11.9848 5.42582 11.9848C5.43591 12.2759 6.63891 14.1529 6.64853 14.4302C6.22307 18.7097 4.20819 23.5903 7.94767 28.0328C7.94767 28.0328 3.91016 26.3762 2.45819 27.0903C1.00623 27.8043 0.687841 30.0197 0.535003 30.7839C0.458583 30.7075 0.0764874 28.1857 6.81877e-05 27.8036C-0.1302 27.6732 -0.154778 24.7932 0.076478 22.3778C0.458574 20.773 0.759587 19.387 0.458574 18.7097C0.0839877 17.8669 -0.0763605 16.4935 0.152897 15.1944C0.29229 14.7065 -0.0902819 13.0495 -0.15278 11.3734C-0.227335 9.37405 1.07884e-05 7.34764 7.24196e-05 7.24679C7.24196e-05 7.24679 -1.22263 2.66162 -0.15277 0.598316C0.687827 2.89089 0.394873 4.34028 2.45819 4.34028C3.06955 4.49312 3.79808 6.01386 4.79153 6.09028C5.93781 6.24312 7.03063 4.34286 8.86469 4.87779C7.87124 5.03063 7.07646 6.29152 6.54153 6.67361C7.38214 6.44435 9.21208 6.48037 9.45819 6.67361C7.04266 9.88322 15.3746 12.7664 16.3334 13.75C16.4455 14.7209 19.1049 16.3283 17.6529 19.385C18.2642 18.7097 19.5277 17.9016 19.3749 16.0069C23.6034 15.9025 23.718 10.3646 26.9582 7.25695C27.5695 7.71546 29.8749 8.42361 29.8749 8.42361C29.8749 8.42361 27.5874 5.79482 25.3712 5.03063C29.5743 4.72495 32.2082 5.56556 33.9302 1.2861Z" fill="#99FF33" fill-opacity="1"/>
</svg>
