<svg width="46" height="58" viewBox="0 0 46 58" fill="none" xmlns="http://www.w3.org/2000/svg">
<path d="M13.1098 4.56158C12.2856 3.8434 9.81305 -0.568702 5.96689 4.56158C4.09753 7.05507 1.57129 14.7992 1.57129 18.566C10.0878 24.6704 22.4504 41.1884 23.5493 49.8571C26.0218 40.4703 33.7141 29.3386 44.4284 17.8478C44.4284 14.3359 43.3318 6.28202 41.6812 3.8434C39.2087 -1.18381 33.9889 5.27974 30.6922 8.87063C28.7192 11.0196 27.029 12.7371 25.5506 14.7175C24.5972 15.9945 22.5129 15.9922 21.6589 14.6467C20.8749 13.4117 19.9995 12.1271 19.1537 11.0251C17.5 8.87063 14.6431 5.89777 13.1098 4.56158Z" fill="#FEB483" stroke="#FEB483" stroke-width="3" stroke-miterlimit="16" stroke-linecap="round"/>
</svg>
