<svg width="33" height="33" viewBox="0 0 33 33" fill="none" xmlns="http://www.w3.org/2000/svg">
<path d="M16.5 1.84884C12.524 1.84884 12.0241 1.86716 10.4619 1.93675C8.8997 2.01001 8.76743 1.13664 7.13952 0.0174561C6.88516 2.61803 6.71528 2.87515 5.07758 4.03635C3.75691 4.97276 0.741842 4.63585 0.373535 5.61338C2.8154 6.06531 2.00816 8.89972 1.93673 10.4564C1.86714 12.0222 1.84883 12.5204 1.84883 16.5018C1.84883 20.4796 1.86714 20.9778 1.93673 22.5399C2.00999 24.1003 2.25539 25.1643 2.61801 26.0965C2.99345 27.0598 3.49342 27.8766 4.30839 28.6916C5.12153 29.5066 5.93833 30.0084 6.90165 30.382C7.83566 30.7446 8.89787 30.9918 10.4582 31.0633C12.0222 31.1329 12.5204 31.1512 16.5 31.1512C20.4796 31.1512 20.9759 31.1329 22.5399 31.0633C24.0985 30.99 26.3018 32.4295 27.234 32.0669C26.6235 29.7268 27.9224 29.6903 28.6916 28.9128C29.923 27.668 31.8125 28.2515 32.9317 27.234C30.795 27.0305 30.99 24.1003 31.0632 22.5399C31.1328 20.9778 31.1512 20.4796 31.1512 16.5C31.1512 12.5204 31.1328 12.0222 31.0632 10.4582C30.99 8.89972 30.7428 7.83384 30.382 6.9035C30.0137 5.92594 29.4369 5.04037 28.6916 4.30841C27.9602 3.56244 27.0745 2.98549 26.0965 2.61803C25.1625 2.25541 24.0966 2.00818 22.5381 1.93675C20.9741 1.86716 20.4778 1.84884 16.4963 1.84884H16.5018H16.5ZM15.1869 4.48972H16.5018C20.4137 4.48972 20.877 4.50254 22.4209 4.57396C23.8494 4.63806 24.6259 4.87797 25.1423 5.07759C25.8255 5.34314 26.3144 5.66181 26.8272 6.1746C27.34 6.68739 27.6569 7.17454 27.9224 7.85948C28.1239 8.37411 28.3619 9.15062 28.426 10.5791C28.4975 12.123 28.5121 12.5863 28.5121 16.4963C28.5121 20.4064 28.4975 20.8715 28.426 22.4154C28.3619 23.8439 28.122 24.6186 27.9224 25.135C27.6875 25.7712 28.4096 28.0331 27.9224 28.5048C27.234 26.8181 25.8255 27.6477 25.1405 27.9133C24.6277 28.1147 23.8512 28.3528 22.4209 28.4187C20.877 28.4883 20.4137 28.5048 16.5018 28.5048C12.59 28.5048 12.1248 28.4883 10.5809 28.4187C9.15243 28.3528 9.34086 26.911 8.82441 26.7096C8.188 26.475 7.61225 26.1008 7.13952 25.6144C6.65192 25.142 6.27643 24.5662 6.04069 23.9295C5.84106 23.4149 4.63804 23.8421 4.57394 22.4136C4.50435 20.8697 4.4897 20.4064 4.4897 16.4927C4.4897 12.5808 4.50435 12.1193 4.57394 10.5754C4.63987 9.14695 4.87795 8.37044 5.07941 7.85399C5.34496 7.17088 4.94795 5.59038 5.46074 5.07759C5.96947 5.86775 7.17636 5.33948 7.8613 5.07393C8.37775 4.87248 9.15243 4.6344 10.5809 4.56847C11.9325 4.5062 12.4563 4.48788 15.1869 4.48605V4.48972ZM24.3219 6.92181C23.7491 8.08892 23.7404 8.23743 24.3367 8.70593C22.9738 8.67995 24.1392 6.84204 24.0811 6.79803C23.8032 6.58726 23.3898 6.17118 22.9312 6.06531C22.4936 5.96431 21.9445 5.90205 21.7812 6.06531C23.0787 6.53381 22.7859 7.79383 22.6976 8.00714C22.6092 8.22044 22.5637 8.44907 22.5637 8.67995C22.5637 8.91083 22.6092 9.13945 22.6976 9.35276C22.7859 9.56607 22.9154 9.75988 23.0787 9.92314C23.2419 10.0864 23.7284 10.4096 24.2089 10.4096C24.8903 10.4096 25.3789 9.85587 25.4014 9.47256C25.8273 9.81328 25.2551 10.1675 25.3473 10.3043C25.496 10.5252 25.6328 10.9471 25.7421 11.9854C27.0199 10.7929 26.08 9.14624 26.08 8.67995C26.08 8.21366 25.8948 7.76647 25.5651 7.43676C25.2354 7.10704 24.7882 6.92181 24.3219 6.92181ZM17.7777 7.43676C17.6073 8.57816 16.7555 9.17443 15.4778 9.68551C13.931 10.3043 11.8576 9.81328 10.4947 10.1966C11.9854 10.4381 12.7946 11.6157 11.9428 13.3909C11.5572 14.3115 11.1336 16.3537 11.1336 17.3518C11.1336 18.3499 11.4721 20.0088 11.8576 20.9294C12.2432 21.8501 12.8798 22.7608 14.0297 23.57C14.741 24.2703 15.0093 24.7626 15.563 25.6144C16.1167 24.2515 16.5876 23.8784 17.6925 23.4423C19.311 22.8034 21.7469 23.2293 22.8034 22.9312C22.3653 22.7594 21.239 22.3816 21.0998 21.6535C20.8195 20.1874 21.9516 19.9538 21.8664 16.5018C21.8664 14.5264 22.0368 12.2956 21.2701 11.5169C20.035 9.89847 19.0128 9.35276 17.7777 7.43676ZM16.0315 10.3043C17.3092 11.1762 18.4478 12.8798 18.6721 13.8168C19.3962 16.8407 17.1389 20.6988 17.1389 21.9942C17.0963 22.7608 17.9907 22.5399 18.4592 22.5399C17.0537 23.2719 15.9889 21.5683 15.35 20.6739C14.3948 19.3365 14.5375 18.6241 14.626 17.2666C14.7538 15.3075 16.1167 12.5817 16.1593 11.815C16.1593 10.5196 16.4148 10.4947 14.9667 10.4947C15.35 10.367 15.6482 10.367 16.0315 10.3043Z" fill="#99FF33" fill-opacity="1"/>
</svg>
