<svg width="29" height="29" viewBox="0 0 29 29" fill="none" xmlns="http://www.w3.org/2000/svg">
<g clip-path="url(#clip0_76_392)">
<path d="M22.8376 24.5292C22.8376 24.5292 17.8122 17.7255 16.0001 18.5C16.0001 18 16.0001 18 17.2226 17.7255C16.3644 17.4888 14.063 17.4148 13.1457 17.7255C11.8669 18.1587 11.5767 17.998 11.2191 19.1816C9.88992 16.9918 8.35115 16.8735 6.87156 15.601C5.244 13.9143 5.67563 12.3755 5.7644 9.97857C5.94194 7.3449 7.36237 4.97757 8.13175 4.00103C8.21718 3.26123 7.51401 2.22783 6.59297 1.95919C8.39807 1.81123 10.7124 2.78164 11.5113 2.36736C13.1981 1.95307 13.8787 0.739806 14.0562 -0.236725C14.2336 0.0883879 14.796 1.15409 15.743 2.13062C16.8379 3.13674 17.5196 2.99647 18.3766 3.87653C19.1664 4.68745 20.8153 6.6501 20.9746 7.42144C21.2453 8.73257 21.306 9.87649 21.3297 11.1796C21.3512 12.3606 20.6787 13.9021 20.2644 14.3755C19.2555 15.5285 18.5001 14.5 19.0001 17C19.0001 16 19.0001 15.5 19.7552 15.4765C18.5001 18 24.5001 22 24.5001 22C24.9408 22.6323 25.8706 23.0633 26.5001 22.5C26.3706 23.0633 25.8916 23.3043 25.5001 23.5C24.5001 24 23.5001 23.5 23.0001 24C22.7373 24.2628 22.9042 24.1469 22.8376 24.5292ZM14.0001 17C12.7042 17.1888 12.2399 16.7898 11.7399 15.9204C13.2399 16.4204 15.5345 16.8401 16.5001 16.5C17.4658 16.1599 19.0001 13.5 18.5001 10C18.1686 7.67908 16.8583 5.88335 15.743 4.73642C13.9806 2.92407 12.044 3.10715 10.7124 3.37347C11.896 3.22551 12.2807 3.52143 12.1032 3.87653C12.1032 4.02449 11.5113 4.7347 11.0379 5.17858C8.87774 7.20375 7.69032 8.526 8.00012 11.5C8.14808 12.9204 8.2389 14.3816 9.45216 15.9204C10.7542 17.4888 13.5211 17.26 14.0001 17Z" fill="#99FF33"/>
</g>
<defs>
<clipPath id="clip0_76_392">
<rect width="29" height="29" fill="white"/>
</clipPath>
</defs>
</svg>
