<svg width="26" height="30" viewBox="0 0 26 30" fill="none" xmlns="http://www.w3.org/2000/svg">
<path d="M17.5497 7.49042C16.6168 6.05047 16.6625 4.55644 16.6625 3.37506C15.4725 3.02454 13.0319 3.64769 12.1562 0.428101C11.7077 4.11504 12.8128 2.97261 12.1562 21.4584C12.1215 22.437 11.7083 23.3639 11.0038 24.0439C10.2993 24.724 9.35835 25.1041 8.37915 25.1042C6.30832 25.1042 4.58748 23.4126 4.58748 21.3126C4.58748 18.8042 6.17612 16.7398 8.66987 17.5127C8.66987 17.5127 8.62079 14.6306 11.3702 13.6699C10.7758 13.592 9.55131 13.2439 8.46215 13.0987C6.52959 12.841 4.17803 14.7345 3.42506 12.3198C3.42506 16.0846 0.0666504 18.7514 0.0666504 21.3126C0.0666504 23.8517 3.29524 26.055 1.37388 28.7553C3.3212 27.5609 6.41683 29.7748 8.95547 28.7553C14.1275 26.6781 13.0838 29.5472 16.2515 28.7553C12.5645 27.1065 16.3465 23.7883 16.6625 21.3126C16.9785 18.8369 16.1476 18.3176 16.6625 11.6188C15.3687 10.9696 13.681 10.9956 15.3687 8.21742C15.3687 10.5282 18.6935 12.5972 18.9777 12.7352C21.0765 13.7544 23.2019 14.1147 25.1832 14.1113C22.1454 11.411 23.4696 10.5282 23.4696 10.5282C23.4696 10.5282 20.6299 12.2448 17.5497 7.49042Z" fill="#99FF33" fill-opacity="1"/>
</svg>
