<svg width="31" height="25" viewBox="0 0 31 25" fill="none" xmlns="http://www.w3.org/2000/svg">
<path d="M30.9711 3.26815C30.3116 3.26815 28.5084 3.93645 27.2542 4.09687C28.5375 3.32395 30.4131 2.25366 29.8551 0.376849C29.8149 0.83337 29.743 1.39134 29.2971 1.28989C28.3167 1.77769 27.124 1.93155 26.0292 2.15728C25.3634 2.29456 23.3797 2.59605 23.3116 4.02902C22.7537 1.32794 25.3406 1.98736 25.4649 1.61615C24.7319 1.69569 24.7339 1.06724 24.3261 0.858207C23.4614 0.414969 22.4773 0.17395 21.4209 0.17395C17.9938 0.17395 15.1938 2.97395 15.1938 6.4302C15.1938 6.79603 15.7029 7.2754 14.9281 7.42757C15.2832 7.71219 18.4928 6.26091 18.8986 11.029C16.8189 7.52568 15.6522 8.34062 13.8768 7.98554C14.1951 8.69569 11.0219 8.36019 10.8334 8.44207C9.8696 8.23917 6.11597 7.17395 2.95711 2.71018C2.46254 2.05076 2.34841 1.94931 2.46254 1.32603C1.92295 2.24478 1.6167 3.32395 1.6167 4.46145C1.6167 6.57986 2.65627 8.46263 4.27595 9.56925C4.89859 9.99465 6.91363 10.5105 7.11653 9.91308C7.11653 11.0685 4.54351 10.2174 4.25379 9.65112C3.34101 9.05489 2.33444 10.8261 1.55837 8.92395V8.9677C0.508355 10.6232 3.5749 14.3684 6.29096 15.0437C7.53627 15.0437 8.94837 13.7682 8.57358 12.8044C9.28372 14.6305 7.33337 15.4421 6.39241 15.2094C5.57476 15.3632 4.76923 16.3551 3.76045 15.2094C3.65328 16.4566 4.93228 17.5404 5.9786 18.3199C6.88095 18.9921 7.94542 19.4059 9.05801 19.5224C9.23553 19.5409 12.6087 19.0435 12.6087 17.8768C13.116 18.8913 9.8696 20.1595 9.41308 20.1595C7.26624 21.7378 5.18694 22.3028 2.51453 22.2899C2.01869 22.2899 0.992786 22.4421 0.637718 20.5145C-1.6449 23.558 6.40004 24.9656 9.92921 24.9656C11.7195 24.9656 13.3876 24.7197 14.9281 24.2732C17.9345 22.2291 20.5126 21.8197 22.7537 19.5224C23.4575 18.8009 25.4563 16.5736 26.0292 15.7971C27.3032 14.0704 27.1264 12.0263 27.5419 9.91308C27.7641 8.78306 27.0653 7.8841 27.8768 6.56525C27.4711 7.02178 24.9494 7.09596 24.9348 6.81888C27.2735 6.81888 29.2355 5.1038 30.3116 3.79923C30.5242 3.54155 30.5653 3.42033 30.9711 3.26815Z" fill="#99FF33" fill-opacity="1"/>
</svg>
